<svg id="Art" xmlns="http://www.w3.org/2000/svg" width="792" height="612" viewBox="0 0 792 612"><linearGradient id="SVGID_1_" gradientUnits="userSpaceOnUse" x1="337.526" y1="340.748" x2="464.86" y2="156.748"><stop offset="0" stop-color="#653928"/><stop offset=".175" stop-color="#673b2a"/><stop offset=".239" stop-color="#6e402f"/><stop offset=".284" stop-color="#794b39"/><stop offset=".32" stop-color="#8a5947"/><stop offset=".351" stop-color="#a06c59"/><stop offset=".378" stop-color="#bb836f"/><stop offset=".403" stop-color="#da9f89"/><stop offset=".404" stop-color="#dca08a"/><stop offset=".49" stop-color="#e5c2ac"/><stop offset=".521" stop-color="#dca08a"/><stop offset=".522" stop-color="#db9f89"/><stop offset=".551" stop-color="#bc856f"/><stop offset=".583" stop-color="#a16f59"/><stop offset=".62" stop-color="#8b5d47"/><stop offset=".663" stop-color="#7a4f39"/><stop offset=".717" stop-color="#6f452f"/><stop offset=".792" stop-color="#68402a"/><stop offset="1" stop-color="#663e28"/></linearGradient><path fill="url(#SVGID_1_)" d="M459.645 317.857l-12.597-12.596-2.357-2.355-46.875-46.874 46.872-46.871.003 90.109 2.357 2.355-.002-94.821 12.599-12.598v120.013l2.356 2.359V190.182h-1.667l-2.357 2.358h.002l-12.601 12.596-2.357 2.358-95.402 95.407v-95.407h91.766l2.357-2.358h-96.48v100.12l-12.599 12.599V192.54h121.675l2.357-2.358H330.306v131.699h1.659l26.96-26.958v.001l37.224-37.225 46.872 46.869-90.103-.002-2.355 2.356 94.815.003 12.601 12.598-120.013-.002-2.362 2.36h126.397v-1.668z"/><g><path fill="#2E216A" d="M379.805 415.562c2.066-1.389 4.493-1.768 6.891-1.768 4.994 0 11.886 4.371 16.839 4.371 3.416 0 5.5-1.054 7.699-3.667l.832.673c-2.01 3.617-5.303 7.102-10.156 7.102-6.809 0-11.768-6.884-17.566-6.884-1.408 0-3.166.468-4.161 1.05l-.378-.877z"/><g fill="#2E216A"><path d="M198 411.143v-1.65l2.258-.408c.78-.128 1.292-.344 1.589-.623.285-.281.437-.738.437-1.373.093-2.564.151-6.184.151-10.822l-.151-10.828c0-.703-.122-1.188-.396-1.455-.279-.252-.838-.467-1.63-.605l-2.258-.43V381.3l6.775.218 6.682-.218v1.647l-2.223.43c-.762.141-1.298.336-1.583.605-.232.268-.384.746-.413 1.43-.087 2.264-.14 5.404-.151 9.438h4.639a536.04 536.04 0 0 0 6.932-8.94c.366-.473.547-.914.547-1.278 0-.616-.582-1.025-1.74-1.255l-2.084-.43V381.3l6.217.218 5.669-.218v1.647l-2.025.465c-.774.201-1.409.498-1.927.896-.507.396-1.333 1.275-2.515 2.66a227.033 227.033 0 0 0-3.003 3.483 108.21 108.21 0 0 1-2.113 2.474c-.448.494-.687.791-.745.896l9.464 13.495c.593.865 1.397 1.428 2.444 1.699l2.095.524v1.604l-5.582-.201-2.485.113c-3.935-6.227-7.019-10.959-9.266-14.187h-4.522l.151 10.218c.029.607.181 1.064.448 1.355.279.283.809.513 1.548.641l2.223.408v1.65l-6.682-.201-6.775.204zM245.704 411.143v-1.65l2.235-.408c.78-.128 1.327-.355 1.612-.641.297-.291.454-.748.454-1.355.087-2.564.122-6.184.122-10.822l-.122-10.83c-.064-.701-.21-1.188-.483-1.453-.279-.252-.803-.467-1.583-.605l-2.235-.43V381.3l6.63.247h10.982c.722 0 1.642-.055 2.748-.143 1.094-.082 2.014-.15 2.782-.213l1.106-.127c-.233 1.713-.483 4.561-.769 8.564h-1.642l-.506-1.967c-.408-1.417-.833-2.465-1.275-3.131-.454-.66-1.094-.99-1.897-.99h-8.183c-.338 0-.547.062-.641.143-.07.096-.116.27-.116.495v10.628c2.049 0 3.888-.027 5.506-.114.664-.058 1.152-.229 1.49-.509.32-.285.559-.806.768-1.559l.547-2.219h1.641l-.198 5.373.198 5.453h-1.641l-.547-2.229c-.209-.734-.448-1.24-.768-1.54-.338-.294-.827-.478-1.49-.519l-5.506-.121v9.613c0 1.797 1.042 2.688 3.114 2.688h4.953c1.228 0 2.206-.229 2.957-.645.769-.446 1.525-1.37 2.276-2.813l1.897-3.637h1.525c-.588 3.484-1.019 6.504-1.286 9.109-3.848-.14-6.589-.203-8.224-.203h-9.75l-6.681.209zM287.959 382.943v-1.647l6.787.218 7.129-.218v1.647l-2.596.43c-.995.152-1.479.533-1.479 1.156 0 .265.1.602.309.969.938 1.711 1.933 3.545 3.062 5.5a497.414 497.414 0 0 0 2.642 4.529l1.019 1.684c1.887-2.965 4.039-6.83 6.508-11.631.191-.385.285-.699.285-.952 0-.649-.57-1.048-1.723-1.255l-2.3-.43v-1.647l5.663.218 5.216-.218v1.647l-1.933.43c-.605.111-1.083.32-1.42.604-.35.291-.699.753-1.06 1.368l-8.265 14.143v2.043c0 1.898.018 3.749.075 5.556.035.637.169 1.105.413 1.373.262.279.78.495 1.561.623l2.234.408v1.65l-6.605-.203-6.856.203v-1.65l2.24-.408c.745-.128 1.24-.328 1.502-.6.262-.261.401-.732.419-1.396.064-.908.082-2.762.082-5.556v-1.856a503.18 503.18 0 0 0-8.521-14.283c-.379-.626-.728-1.072-1.071-1.354-.354-.31-.826-.521-1.466-.661l-1.851-.434zM335.709 401.33l1.84-.207c.372 1.486 1.047 3.301 2.014 5.396.437.992 1.234 1.746 2.369 2.263 1.123.525 2.334.781 3.649.781 1.642 0 3.038-.484 4.214-1.432 1.182-.963 1.781-2.258 1.781-3.873 0-1.049-.291-1.951-.873-2.748-.536-.795-1.275-1.441-2.154-1.961a23.227 23.227 0 0 0-2.945-1.477 60.402 60.402 0 0 1-3.247-1.457 18.737 18.737 0 0 1-2.945-1.74c-.867-.648-1.589-1.476-2.159-2.532-.559-1.022-.826-2.212-.826-3.55 0-2.186.896-4.037 2.712-5.58 1.815-1.553 4.278-2.314 7.409-2.314 1.146 0 2.398.097 3.771.29 1.345.171 2.422.366 3.178.546.757.174 1.27.309 1.502.396a161.789 161.789 0 0 0-.791 7.324h-1.642a64.983 64.983 0 0 0-1.514-4.863c-.407-1.117-1.95-1.688-4.68-1.688-1.642 0-2.997.408-4.039 1.194-1.065.798-1.571 1.902-1.571 3.302 0 .854.273 1.646.832 2.354.559.725 1.286 1.35 2.171 1.871a30.045 30.045 0 0 0 2.963 1.484c1.082.48 2.171.99 3.241 1.538a22.863 22.863 0 0 1 2.945 1.835 8.175 8.175 0 0 1 2.143 2.521c.559 1.02.844 2.152.844 3.404 0 2.8-1.001 5.02-3.004 6.676-1.996 1.662-4.533 2.491-7.602 2.491-.901 0-1.81-.054-2.724-.157a26.364 26.364 0 0 1-2.497-.401 20.527 20.527 0 0 1-1.932-.478 14.858 14.858 0 0 1-1.508-.425 63.177 63.177 0 0 1-.658-.212c0-.43.012-.977.012-1.613.012-1.656-.08-3.964-.279-6.958zM375.649 396.516c0-4.514 1.432-8.264 4.284-11.186 2.863-2.922 6.658-4.404 11.396-4.434 1.851 0 3.655.322 5.407.956a15.32 15.32 0 0 1 4.771 2.791c1.426 1.231 2.59 2.817 3.451 4.781.867 1.978 1.303 4.187 1.303 6.624 0 4.545-1.432 8.262-4.281 11.172-2.854 2.895-6.643 4.353-11.351 4.353-1.787 0-3.574-.323-5.303-.948-1.734-.626-3.335-1.549-4.802-2.732-1.443-1.211-2.619-2.783-3.527-4.756-.917-1.983-1.348-4.17-1.348-6.621zm5.122-.846c0 4.548 1.007 7.994 2.991 10.357 1.991 2.354 4.465 3.535 7.404 3.535 1.432 0 2.765-.271 3.935-.809 1.192-.521 2.141-1.217 2.875-2.074.717-.854 1.326-1.857 1.826-2.99.49-1.158.84-2.298 1.037-3.439.197-1.133.291-2.273.291-3.428 0-4.557-.984-8.006-2.945-10.363-1.967-2.369-4.412-3.56-7.363-3.56-1.811 0-3.398.408-4.755 1.208-1.374.818-2.41 1.851-3.149 3.143a16.662 16.662 0 0 0-1.605 4.068 17.214 17.214 0 0 0-.542 4.352zM424.75 382.943v-1.647l6.635.218 6.752-.218v1.647l-2.184.43c-.785.141-1.309.354-1.582.633-.291.285-.438.75-.438 1.416v15.241c0 2.981.77 5.134 2.334 6.438 1.57 1.297 3.604 1.941 6.129 1.941 1.688 0 3.152-.277 4.377-.812 1.211-.554 2.146-1.302 2.775-2.237a10.562 10.562 0 0 0 1.379-3.049c.285-1.072.428-2.255.428-3.539 0-1.688-.029-4.382-.061-8.039-.047-3.663-.047-5.646-.047-5.945 0-.666-.135-1.131-.408-1.416-.277-.279-.809-.492-1.604-.633l-2.258-.43v-1.647l5.566.218 5.426-.218v1.647l-2.219.43c-.777.141-1.318.354-1.604.633-.314.285-.465.75-.465 1.416l-.09 14.275c0 3.797-1.049 6.725-3.152 8.784-2.131 2.056-5.137 3.092-9.092 3.092-3.896 0-6.914-.931-9.094-2.776-2.172-1.854-3.26-4.517-3.26-8.012v-15.363c0-.666-.127-1.131-.418-1.416-.273-.279-.805-.492-1.562-.633l-2.263-.429zM472.012 411.143v-1.65l2.117-.408c.635-.102 1.129-.303 1.443-.6.338-.291.6-.762.854-1.371l10.055-25.879 3.613-.812a767.55 767.55 0 0 0 10.507 26.663c.278.635.554 1.105.839 1.396.283.297.721.498 1.35.6l2.107.408v1.65l-6.834-.201-6.846.201v-1.65l2.281-.408c.791-.145 1.309-.384 1.623-.684a.896.896 0 0 0 .25-.631c0-.201-.059-.431-.146-.665l-3.131-8.191h-10.145l-2.877 8.191c-.092.269-.14.505-.14.703 0 .245.069.448.222.608.268.311.778.553 1.555.666l2.363.408v1.65l-6.246-.202-4.814.208zm10.592-14.235h8.877l-4.445-12.027-4.432 12.027zM521.549 411.143v-1.65l2.152-.408c.764-.128 1.264-.344 1.555-.641.291-.291.412-.748.412-1.355.105-2.564.135-6.17.135-10.8l-.135-10.809c-.039-.715-.203-1.188-.447-1.443-.271-.273-.756-.476-1.52-.62l-2.152-.417v-1.652l8.48.125s.404-.024 1.15-.094c.732-.059 1.684-.113 2.828-.174a48.686 48.686 0 0 1 2.904-.101c1.012 0 2.02.116 2.975.342.959.216 1.928.597 2.875 1.106.994.512 1.766 1.316 2.363 2.398.594 1.082.896 2.393.896 3.911 0 1.679-.547 3.181-1.631 4.537-1.082 1.345-2.571 2.396-4.469 3.187l4.736 6.833a60.018 60.018 0 0 0 2.225 2.979c.582.715 1.351 1.429 2.353 2.133.993.693 2.024 1.139 3.132 1.273l-.468 1.652h-1.433c-2.875 0-4.953-.393-6.25-1.145a5.877 5.877 0 0 1-1.363-1.046c-.465-.472-.952-1.075-1.486-1.86a64.477 64.477 0 0 1-1.281-1.935 57.52 57.52 0 0 1-1.49-2.433c-.696-1.133-1.11-1.871-1.303-2.212a94.189 94.189 0 0 0-1.853-2.888h-4.83c0 2.896.032 5.961.14 9.17.018.639.19 1.092.487 1.371.291.271.828.484 1.571.6l2.211.408v1.65l-6.732-.201-6.737.209zm9.062-15.721c1.777.328 2.961.498 3.625.504h1.752c1.15 0 2.258-.539 3.312-1.621 1.064-1.089 1.576-2.754 1.576-4.986 0-2.01-.6-3.553-1.805-4.615-1.222-1.065-2.828-1.59-4.795-1.59h-2.91c-.344 0-.547.05-.629.156-.095.104-.127.271-.127.508l.001 11.644zM568.059 411.143v-1.65l2.24-.408c.775-.128 1.322-.355 1.604-.641.303-.291.445-.748.445-1.355.082-2.564.123-6.184.123-10.822l-.123-10.83c-.062-.701-.209-1.188-.471-1.453-.279-.252-.803-.467-1.578-.605l-2.24-.43V381.3l6.637.247h10.979c.729 0 1.629-.055 2.734-.143 1.104-.082 2.037-.15 2.783-.213l1.104-.127c-.209 1.713-.455 4.561-.758 8.564h-1.635l-.523-1.967c-.396-1.417-.82-2.465-1.275-3.131-.451-.66-1.082-.99-1.885-.99h-8.172c-.35 0-.57.062-.652.143-.094.096-.129.27-.129.495v10.628c2.062 0 3.883-.027 5.52-.114.676-.058 1.17-.229 1.482-.509.314-.285.564-.806.766-1.559l.568-2.219h1.637l-.203 5.373.203 5.453h-1.637l-.568-2.229c-.199-.734-.449-1.24-.766-1.54-.312-.294-.809-.478-1.482-.519l-5.52-.121v9.613c0 1.797 1.049 2.688 3.127 2.688h4.959c1.217 0 2.205-.229 2.951-.645.773-.446 1.529-1.37 2.271-2.813l1.891-3.637H594c-.6 3.484-1.02 6.504-1.299 9.109-3.834-.14-6.594-.203-8.217-.203h-9.732l-6.693.209z"/></g><g><g fill="#2E216A"><path d="M206.253 437.637c2.224 0 4.318.908 5.669 2.395l-1.467 1.479c-.919-1-2.532-1.754-4.202-1.754-3.155 0-5.628 2.529-5.628 5.873 0 3.5 2.538 5.877 5.838 5.877 2.083 0 3.585-1.146 4.447-2.205l1.577 1.426c-1.327 1.713-3.649 2.887-6.024 2.887-4.639 0-8.043-3.396-8.043-7.982-.001-4.477 3.358-7.996 7.833-7.996zM229.058 449.396h-6.542l-1.618 3.988h-2.305l6.426-15.52h1.548l6.443 15.52h-2.316l-1.636-3.988zm-5.658-2.097h4.79l-2.392-5.768-2.398 5.768zM242.573 446.508v6.879h-2.2v-15.52h5.861c1.507 0 2.485.377 3.242 1.021a4.348 4.348 0 0 1 1.525 3.299c0 1.34-.6 2.512-1.525 3.301-.756.652-1.734 1.02-3.242 1.02h-3.661zm3.55-2.096c1.077 0 1.636-.277 2.049-.693a2.28 2.28 0 0 0 .617-1.531c0-.588-.256-1.131-.617-1.525-.413-.424-.972-.689-2.049-.689h-3.55v4.441l3.55-.003zM258.66 437.867h2.218v15.52h-2.218v-15.52zM268.328 437.867h10.646v2.104h-4.214v13.416h-2.218v-13.416h-4.214v-2.104zM293.96 449.396h-6.536l-1.63 3.988h-2.299l6.426-15.52h1.56l6.42 15.52h-2.299l-1.642-3.988zm-5.663-2.097h4.796l-2.398-5.768-2.398 5.768zM307.469 451.279h6.88v2.105h-9.086v-15.52h2.206v13.415zM341.012 450.062h-1.56l-4.534-7.121v10.443h-2.212v-15.52h1.548l5.978 9.475 5.989-9.475h1.549v15.52h-2.224v-10.443l-4.534 7.121zM365.603 449.396h-6.524l-1.618 3.988h-2.311l6.438-15.52h1.542l6.432 15.52h-2.305l-1.654-3.988zm-5.628-2.097h4.772l-2.392-5.768-2.38 5.768zM379.141 441.99v11.396h-2.211v-15.52h1.548l9.312 11.387v-11.387h2.212v15.52h-1.549l-9.312-11.396zM407.842 449.396h-6.537l-1.629 3.988h-2.293l6.434-15.52h1.547l6.432 15.52h-2.322l-1.632-3.988zm-5.647-2.097h4.771l-2.393-5.768-2.378 5.768zM431.559 450.727c-1.338 1.684-3.643 2.887-6.047 2.887-4.627 0-8.037-3.396-8.037-7.982 0-4.473 3.363-7.992 7.848-7.992 2.217 0 4.33.908 5.662 2.395l-1.469 1.479c-.912-1-2.543-1.754-4.193-1.754-3.173 0-5.623 2.529-5.623 5.873 0 3.5 2.516 5.877 5.812 5.877 1.648 0 2.998-.621 3.824-1.441v-3.982H424.9v-2.105h6.656l.003 6.745zM447.658 443.975v2.105h-5.098v5.199h6.865v2.105h-9.08v-15.52h8.859v2.104h-6.646v4.004l5.1.003zM465.678 450.062h-1.559l-4.529-7.121v10.443h-2.217v-15.52h1.549l5.988 9.475 5.977-9.475h1.566v15.52h-2.229v-10.443l-4.546 7.121zM489.012 443.975v2.105h-5.104v5.199h6.879v2.105h-9.098v-15.52h8.877v2.104h-6.658v4.004l5.104.003zM500.932 441.99v11.396h-2.217v-15.52h1.572l9.301 11.387v-11.387h2.211v15.52h-1.543l-9.324-11.396zM519.283 437.867h10.641v2.104h-4.203v13.416h-2.223v-13.416h-4.215v-2.104zM550.377 451.279h6.867v2.105h-9.08v-15.52h2.213v13.415zM567 451.279h6.873v2.105h-9.086v-15.52H567v13.415zM587.697 437.637c2.217 0 4.316.908 5.668 2.395l-1.479 1.479c-.907-1-2.523-1.754-4.188-1.754-3.168 0-5.629 2.529-5.629 5.873 0 3.5 2.53 5.877 5.825 5.877 2.097 0 3.599-1.146 4.459-2.205l1.563 1.426c-1.326 1.713-3.625 2.887-6.022 2.887-4.627 0-8.036-3.396-8.036-7.982-.001-4.477 3.363-7.996 7.839-7.996z"/></g></g></g></svg>