<svg id="Layer_1" xmlns="http://www.w3.org/2000/svg" width="3000" height="750" viewBox="0 0 3000 750"><g fill="none" stroke="#33C" stroke-width=".915" stroke-miterlimit="10"><path d="M1518.314.136v731.685M1536.607.136v713.393M1554.899.136v695.1M1573.192.136v676.807M1591.485.136V658.65M1609.777.136v640.222M1628.07.136v621.929M1646.363.136v603.636M1664.656.136V585.48M1682.948.136v567.052M1701.241.136v548.759M1719.534.136v530.466M1737.826.136V512.31M1756.119.136v493.881M1774.412.136v475.588M1792.705.136v457.296M1810.997.136v439.003M1829.29.136v420.71M1847.583.136v402.417M1865.875.136v384.125M1884.168.136v365.832M1902.461.136v347.54M1920.754.136v329.247M1939.046.136V311.09M1957.339.136v292.661M1975.631.136v274.369M1993.924.136v256.076M2012.217.136v237.783M2030.51.136v219.491M2048.802.136v201.198M2067.095.136v182.905M2085.388.136v164.612M2103.68.136v146.32M2121.973.136v128.027M2140.266.136V109.87M2158.559.136v91.442M2176.851.136V72.99M2195.144.136v54.856M2213.437.136v36.563M2231.729.136v18.282"/><g><path d="M2250 26.006l-349.13 349.13L2250 724.266"/><path d="M2250 51.875l-323.261 323.261L2250 698.396"/><path d="M2250 77.745l-297.391 297.391L2250 672.525"/><path d="M2250 103.614l-271.521 271.522L2250 646.656"/><path d="M2250 129.484l-245.65 245.652L2250 620.786"/><path d="M2250 155.354l-219.781 219.782L2250 594.917"/><path d="M2250 181.225l-193.911 193.911L2250 569.047"/><path d="M2250 207.094l-168.041 168.042L2250 543.178"/><path d="M2250 232.964l-142.172 142.172L2250 517.308"/><path d="M2250 258.833l-116.303 116.302L2250 491.438"/><path d="M2250 284.703l-90.433 90.433L2250 465.568"/><path d="M2250 310.572l-64.562 64.564L2250 439.699"/><path d="M2250 336.442l-38.693 38.694L2250 413.829"/><path d="M2250 362.312l-12.823 12.824L2250 387.959"/><g><path d="M1500 750.136l750-750M1875 375.136l374.999 375"/></g><g><path d="M1525.87 750.136L1875 401.006l349.13 349.13"/><path d="M1551.739 750.136L1875 426.875l323.26 323.261"/><path d="M1577.609 750.136L1875 452.744l297.391 297.392"/><path d="M1603.479 750.136L1875 478.615l271.521 271.521"/><path d="M1629.35 750.136L1875 504.484l245.65 245.652"/><path d="M1655.219 750.136L1875 530.354l219.781 219.782"/><path d="M1681.088 750.136L1875 556.225l193.912 193.911"/><path d="M1706.959 750.136L1875 582.094l168.041 168.042"/><path d="M1732.828 750.136L1875 607.964l142.172 142.171"/><path d="M1758.698 750.136L1875 633.833l116.302 116.303"/><path d="M1784.567 750.136L1875 659.703l90.433 90.433"/><path d="M1810.438 750.136L1875 685.572l64.562 64.564"/><path d="M1836.307 750.136L1875 711.442l38.693 38.694"/><path d="M1862.177 750.136L1875 737.312l12.823 12.824"/></g></g></g><g fill="none" stroke="#33C" stroke-width=".915" stroke-miterlimit="10"><path d="M2615.854 750.136v-750M2634.146 750.136V18.429H3000"/><path d="M2652.439 750.136V36.721H3000"/><path d="M2670.732 750.136V55.014H3000"/><path d="M2689.025 750.136V73.307H3000"/><path d="M2707.317 750.136V91.6H3000"/><path d="M2725.61 750.136V109.892H3000"/><path d="M2743.902 750.136V128.185H3000"/><path d="M2762.195 750.136V146.478H3000"/><path d="M2780.488 750.136V164.77H3000"/><path d="M2798.781 750.136V183.062H3000"/><path d="M2817.074 750.136V201.355H3000"/><path d="M2835.366 750.136V219.648H3000"/><path d="M2853.659 750.136V237.94H3000"/><path d="M2871.951 750.136V256.233H3000"/><path d="M2890.244 750.136V274.525H3000"/><path d="M2908.537 750.136V292.818H3000"/><path d="M2926.83 750.136V311.111H3000"/><path d="M2945.122 750.136V329.404H3000"/><path d="M2963.415 750.136V347.697H3000"/><path d="M2981.708 750.136V365.989H3000M2250 750.136v-750"/><g><path d="M2250 91.6h365.854M2250 73.307h365.854M2250 55.014h365.854M2250 36.721h365.854M2250 18.429h365.854M2268.293 750.136V109.892h347.561"/><path d="M2286.586 750.136V128.185h329.268"/><path d="M2304.879 750.136V146.478h310.975"/><path d="M2323.172 750.136V164.77h292.682"/><path d="M2341.464 750.136V183.062h274.39"/><path d="M2359.757 750.136V201.355h256.097"/><path d="M2378.049 750.136V219.648h237.805"/><path d="M2396.342 750.136V237.94h219.512"/><path d="M2414.635 750.136V256.233h201.219"/><path d="M2432.928 750.136V274.525h182.926"/><path d="M2451.22 750.136V292.818h164.634"/><path d="M2469.513 750.136V311.111h146.341"/><path d="M2487.806 750.136V329.404h128.048"/><path d="M2506.098 750.136V347.697h109.756"/><path d="M2524.391 750.136V365.989h91.463"/><path d="M2542.684 750.136V384.282h73.17"/><path d="M2560.977 750.136V402.574h54.877"/><path d="M2579.269 750.136V420.867h36.585"/><path d="M2597.562 750.136V439.16h18.292"/></g></g><g fill="none" stroke="#33C" stroke-width=".915" stroke-miterlimit="10"><path d="M25.647 750.136L0 724.488M51.518 750.136L0 698.619M77.387 750.136L0 672.749M103.257 750.136L0 646.879M129.126 750.136L0 621.01M154.996 750.136L0 595.14M180.866 750.136L0 569.271M206.736 750.136L0 543.4M232.605 750.136L0 517.531M258.475 750.136L0 491.661M284.345 750.136L0 465.792M310.215 750.136L0 439.921M336.085 750.136L0 414.052M361.955 750.136L0 388.182M387.824 750.136L0 362.312M413.694 750.136L0 336.442M439.563 750.136L0 310.572M465.434 750.136L0 284.703M491.303 750.136L0 258.832M517.173 750.136L0 232.964M543.042 750.136L0 207.093M568.912 750.136L0 181.225M594.782 750.136L0 155.354M620.652 750.136L0 129.484M646.521 750.136L0 103.614M672.392 750.136L0 77.745M698.261 750.136L0 51.875M724.131 750.136L0 26.005M750 750.135L0 .136"/><g><path d="M676.831 676.965V73.308H73.172"/><path d="M695.123 695.258V55.015l-640.244-.001"/><path d="M713.415 713.551l.001-676.829H36.586"/><path d="M731.708 731.843V18.429H18.293"/><path d="M658.537 658.672V91.6H91.464"/><path d="M640.244 640.38V109.892l-530.487.001"/><path d="M621.952 622.087l.001-493.901H128.05"/><path d="M603.66 603.794V146.479l-457.318-.001"/><path d="M585.367 585.502V164.771l-420.732-.001"/><path d="M567.075 567.209V183.062H182.927"/><path d="M548.781 548.916V201.355H201.22"/><path d="M530.489 530.624V219.648H219.513"/><path d="M512.196 512.331v-274.39h-274.39"/><path d="M493.903 494.039V256.234l-237.805-.001"/><path d="M475.611 475.746V274.527h-201.22"/><path d="M457.317 457.453V292.819H292.684"/><path d="M439.024 439.16l.001-128.048-128.048-.001"/><path d="M420.732 420.867v-91.463h-91.463"/><path d="M402.439 402.574l.001-54.877h-54.878"/><path d="M384.147 384.282V365.99l-18.293-.001"/></g></g><g fill="none" stroke="#33C" stroke-width=".915" stroke-miterlimit="10"><path d="M1143.293 750.136V311.111h375.051"/><path d="M1161.586 750.136V329.404h356.758"/><path d="M1179.878 750.136V347.697h338.466"/><path d="M1198.171 750.136V365.989h320.173"/><path d="M1216.464 750.136V384.282h301.88"/><path d="M1234.756 750.136V402.574h283.588"/><path d="M1253.049 750.136V420.867h265.295"/><path d="M1271.342 750.136V439.16h247.002"/><path d="M1289.635 750.136V457.453h228.709"/><path d="M1307.927 750.136V475.745h210.417"/><path d="M1326.22 750.136V494.038h192.124"/><path d="M1344.513 750.136V512.331h173.831"/><path d="M1362.805 750.136V530.623h155.539"/><path d="M1381.098 750.136v-201.22h137.246"/><path d="M1399.391 750.136V567.209h118.953"/><path d="M1417.684 750.136V585.502h100.66"/><path d="M1435.976 750.136V603.794h82.368"/><path d="M1454.269 750.136V622.087h64.075"/><path d="M1472.562 750.136V640.38h45.782"/><path d="M1490.854 750.136v-91.464h27.49"/><g><path d="M1125 750.136V292.818M1518.284 292.818H731.708M1106.708 750.136V311.111h-375"/><path d="M1088.415 750.136V329.404H731.708"/><path d="M1070.122 750.136V347.697H731.708"/><path d="M1051.83 750.136V365.989H731.708"/><path d="M1033.537 750.136V384.282H731.708"/><path d="M1015.244 750.136V402.574H731.708"/><path d="M996.952 750.136V420.867H731.708"/><path d="M978.659 750.136V439.16H731.708"/><path d="M960.366 750.136V457.453H731.708"/><path d="M942.074 750.136V475.745H731.708"/><path d="M923.781 750.136V494.038H731.708"/><path d="M905.488 750.136V512.331h-173.78"/><path d="M887.195 750.136V530.623H731.708"/><path d="M868.903 750.136v-201.22H731.708"/><path d="M850.61 750.136V567.209H731.708"/><path d="M832.317 750.136V585.502H731.708"/><path d="M814.025 750.136V603.794h-82.317"/><path d="M795.732 750.136V622.087h-64.024"/><path d="M777.439 750.136V640.38h-45.731"/><path d="M759.146 750.136v-91.464h-27.438"/></g><g><path d="M1399.391.136v292.669M1417.684.136v292.669M1435.976.136v292.669M1454.269.136v292.669M1472.562.136v292.669M1490.854.136v292.669M731.708 18.429h649.39v274.376"/><path d="M731.708 36.721h631.097v256.084"/><path d="M731.708 55.014h612.805v237.791"/><path d="M731.708 73.307h594.512v219.498"/><path d="M731.708 91.6h576.219v201.205"/><path d="M731.708 109.892h557.927v182.913"/><path d="M731.708 128.185h539.634v164.62"/><path d="M731.708 146.478h521.341v146.327"/><path d="M731.708 164.77h503.048v128.035"/><path d="M731.708 183.062h484.756v109.743"/><path d="M731.708 201.355h466.463v91.45"/><path d="M731.708 219.648h448.17v73.157"/><path d="M731.708 237.94h429.878v54.865"/><path d="M731.708 256.233h411.585v36.572"/><path d="M731.708 274.525H1125v18.293"/></g></g></svg>